Coordinates
version=1
nRows=26
nColumns=22
inDegrees=yes

Units are S.I. units (second, meters, Newtons, ...)
If the header above contains a line with 'inDegrees', this indicates whether rotational values are in degrees (yes) or radians (no).

endheader
time	pelvis_tilt	pelvis_list	pelvis_rotation	pelvis_tx	pelvis_ty	pelvis_tz	hip_flexion_r	hip_adduction_r	hip_rotation_r	knee_angle_r	ankle_angle_r	subtalar_angle_r	hip_flexion_l	hip_adduction_l	hip_rotation_l	knee_angle_l	ankle_angle_l	subtalar_angle_l	lumbar_extension	lumbar_bending	lumbar_rotation
      0.01000000	      3.93414667	     -2.69829183	      0.89440224	     -1.40323401	      0.94649460	      0.11740175	     -1.23238537	      4.52913110	     -6.01036549	    -16.88147340	     14.50424706	     -3.50231771	     -1.82771887	     -4.03902005	    -11.34812626	    -19.45875791	     26.25878464	     -1.11399287	    -11.28031728	      3.66792645	    -10.25148276
      0.02000000	      3.93223152	     -2.68236489	      0.80544615	     -1.40198175	      0.94626243	      0.11826979	     -1.27806567	      4.56874803	     -5.83489102	    -16.95767123	     14.68475588	     -3.57745497	     -1.92524348	     -4.08193237	    -11.34223758	    -19.48349127	     26.42286915	     -0.88741848	    -11.28584044	      3.66878876	    -10.22605902
      0.03000000	      3.91921034	     -2.68262625	      0.72429136	     -1.40050822	      0.94596309	      0.11931030	     -1.32872107	      4.64134120	     -5.64249598	    -17.03145288	     14.88007330	     -3.67400426	     -1.99510561	     -4.16441754	    -11.31471335	    -19.56728286	     26.53920693	     -0.50020570	    -11.28538194	      3.68732030	    -10.20625502
      0.04000000	      3.90129881	     -2.69823183	      0.63777930	     -1.39883340	      0.94562059	      0.12049319	     -1.39609987	      4.74198574	     -5.41874283	    -17.08756214	     15.06617091	     -3.76211595	     -2.04892490	     -4.27720395	    -11.26785743	    -19.69994360	     26.64347267	     -0.05704403	    -11.28231386	      3.72428830	    -10.16771235
      0.05000000	      3.87675655	     -2.73607078	      0.55130316	     -1.39699818	      0.94524436	      0.12179414	     -1.47304605	      4.87641472	     -5.17692781	    -17.13290895	     15.22023877	     -3.84855723	     -2.08380271	     -4.42232267	    -11.17915034	    -19.87038062	     26.70821382	      0.44681679	    -11.27475067	      3.78558673	    -10.10940280
      0.06000000	      3.87011308	     -2.78731554	      0.48110947	     -1.39506975	      0.94485309	      0.12317379	     -1.59130235	      5.03473119	     -4.92427372	    -17.15071219	     15.40423635	     -3.88184137	     -2.07602385	     -4.60166379	    -11.08584364	    -20.16725892	     26.79819796	      0.76928848	    -11.29797977	      3.86025410	    -10.07450692
      0.07000000	      3.86091705	     -2.87379424	      0.41305900	     -1.39309603	      0.94443889	      0.12462441	     -1.70314644	      5.23643511	     -4.65710748	    -17.18284020	     15.52855578	     -3.92507224	     -2.01351161	     -4.82589490	    -10.94329730	    -20.56310034	     26.81781717	      1.16616051	    -11.33186429	      3.97766001	    -10.02835728
      0.08000000	      3.88713738	     -2.94675786	      0.37907540	     -1.39107560	      0.94407283	      0.12606642	     -1.87603491	      5.42528741	     -4.42851214	    -17.18173968	     15.70290163	     -3.91479510	     -1.91606402	     -5.03229624	    -10.68664733	    -21.08734654	     26.75393280	      1.23679719	    -11.41866714	      4.08127705	    -10.00188641
      0.09000000	      3.88127557	     -3.07693495	      0.36292598	     -1.38909166	      0.94361195	      0.12757200	     -2.01952371	      5.68122696	     -4.22188284	    -17.16087651	     15.75611392	     -3.91011417	     -1.63300098	     -5.33184637	    -10.43514340	    -21.89150759	     26.76798764	      1.37203890	    -11.49008484	      4.24357213	     -9.95487444
      0.10000000	      3.89641075	     -3.20020260	      0.37867648	     -1.38714813	      0.94318621	      0.12906569	     -2.19142149	      5.92959961	     -4.07138094	    -17.12591774	     15.84307831	     -3.87753470	     -1.25264822	     -5.61714750	    -10.03862172	    -22.89914593	     26.65588317	      1.28612935	    -11.61404713	      4.40007300	     -9.93052876
      0.11000000	      3.87942100	     -3.33008136	      0.42690932	     -1.38526910	      0.94270481	      0.13053187	     -2.32375309	      6.18129709	     -3.99970081	    -17.09135394	     15.91574798	     -3.81668437	     -0.67399681	     -5.90656798	     -9.51345353	    -24.18750216	     26.47606574	      0.94900414	    -11.72515887	      4.56604213	     -9.89826416
      0.12000000	      3.89762369	     -3.47713469	      0.53674830	     -1.38342559	      0.94226989	      0.13193039	     -2.52184838	      6.45715272	     -3.98197959	    -16.99947924	     15.94800642	     -3.76128682	      0.03681079	     -6.20626104	     -8.82839909	    -25.76081420	     26.23982742	      0.52576892	    -11.90200041	      4.75866855	     -9.91445886
      0.13000000	      3.85460862	     -3.62517773	      0.66848933	     -1.38167603	      0.94174117	      0.13328902	     -2.63512025	      6.72545693	     -4.06812164	    -16.92732608	     16.01139249	     -3.69207907	      0.99787633	     -6.48320671	     -7.99686454	    -27.63961985	     25.87254376	     -0.15781465	    -12.04090895	      4.95179080	     -9.87083504
      0.14000000	      3.80950362	     -3.77149125	      0.84047190	     -1.37997208	      0.94120617	      0.13457482	     -2.76609626	      6.99588401	     -4.17263574	    -16.81048881	     16.08443929	     -3.63020252	      2.13840937	     -6.72969253	     -7.04427654	    -29.79983894	     25.39139653	     -0.95568872	    -12.20326716	      5.14834558	     -9.87550651
      0.15000000	      3.75883402	     -3.93959184	      1.05536278	     -1.37827340	      0.94065593	      0.13574488	     -2.90258963	      7.28565092	     -4.35869181	    -16.66607812	     16.11877613	     -3.59039559	      3.44608607	     -6.95624861	     -5.97128477	    -32.19969687	     24.77966432	     -1.67223049	    -12.37625175	      5.37941544	     -9.85768787
      0.16000000	      3.68680330	     -4.11011225	      1.28415838	     -1.37655519	      0.94007759	      0.13682937	     -3.03124971	      7.57332068	     -4.57732491	    -16.49036909	     16.15786880	     -3.55523252	      4.90412907	     -7.12984614	     -4.82141026	    -34.76859481	     24.03550842	     -2.35452579	    -12.54244287	      5.61666071	     -9.81202257
      0.17000000	      3.61212239	     -4.27767324	      1.51804584	     -1.37475460	      0.93950758	      0.13781205	     -3.17722892	      7.84743763	     -4.84580888	    -16.28257703	     16.18105867	     -3.51839276	      6.45170278	     -7.24225007	     -3.64885723	    -37.42275822	     23.17617725	     -2.86590772	    -12.71407954	      5.85442349	     -9.71583870
      0.18000000	      3.52289158	     -4.42202145	      1.73304664	     -1.37285960	      0.93893348	      0.13872423	     -3.31675271	      8.08878663	     -5.09652639	    -16.07176008	     16.22745704	     -3.45958223	      8.06504355	     -7.27360728	     -2.51004659	    -40.08436748	     22.23625780	     -3.23942513	    -12.87566986	      6.06560068	     -9.59900886
      0.19000000	      3.46889510	     -4.53142346	      1.93745429	     -1.37081304	      0.93848068	      0.13953447	     -3.54058766	      8.28656436	     -5.33520775	    -15.79186153	     16.21666498	     -3.38699923	      9.63464400	     -7.20207079	     -1.39157877	    -42.63342908	     21.27280652	     -3.41521722	    -13.08260572	      6.23934041	     -9.46669978
      0.20000000	      3.37019555	     -4.60837584	      2.08276674	     -1.36860724	      0.93799976	      0.14032092	     -3.72385134	      8.43050829	     -5.57302307	    -15.52288060	     16.28012346	     -3.26800998	     11.22818364	     -7.05732332	     -0.39711067	    -45.03337954	     20.35279843	     -3.43943256	    -13.23662903	      6.36545203	     -9.24345048
      0.21000000	      3.28843708	     -4.64541233	      2.18181082	     -1.36622963	      0.93762705	      0.14107844	     -3.95928695	      8.52242921	     -5.78033243	    -15.21601261	     16.33295549	     -3.11883825	     12.74397033	     -6.83645681	      0.48300667	    -47.19683295	     19.52752989	     -3.33026538	    -13.41396956	      6.43759706	     -8.98527805
      0.22000000	      3.20623532	     -4.64556334	      2.23506752	     -1.36367020	      0.93733632	      0.14181386	     -4.22495186	      8.56531642	     -5.94898672	    -14.87920519	     16.36597509	     -2.94126722	     14.18938595	     -6.55412278	      1.24327594	    -49.08664879	     18.84693451	     -3.13147751	    -13.58805182	      6.45799543	     -8.69099270
      0.23000000	      3.12881043	     -4.61000725	      2.22715444	     -1.36093002	      0.93713837	      0.14259371	     -4.53039451	      8.56643002	     -6.03065469	    -14.50574244	     16.42278411	     -2.71432944	     15.54633311	     -6.23802439	      1.84864773	    -50.67254816	     18.30082598	     -2.88413646	    -13.76864406	      6.42013161	     -8.35372476
      0.24000000	      3.06834006	     -4.54949051	      2.19759960	     -1.35800339	      0.93705721	      0.14337201	     -4.90037290	      8.54064684	     -6.08346825	    -14.06619568	     16.37462370	     -2.53362471	     16.80656422	     -5.90332778	      2.33736964	    -51.94084891	     17.90152454	     -2.80185114	    -13.96540014	      6.34375821	     -8.01555644
      0.25000000	      3.01372748	     -4.47493461	      2.12126632	     -1.35486376	      0.93704843	      0.14424338	     -5.32143067	      8.50141315	     -6.08222087	    -13.56868144	     16.30115013	     -2.37316628	     17.98196421	     -5.60767122	      2.64073970	    -52.89893652	     17.57567355	     -2.86744993	    -14.15837219	      6.22864745	     -7.65014475
      0.26000000	      2.93236836	     -4.39624291	      2.01614983	     -1.35159444	      0.93703887	      0.14517802	     -5.73497612	      8.46092750	     -6.00281827	    -13.04645869	     16.21386996	     -2.16267504	     19.12202779	     -5.35472019	      2.81088139	    -53.55906347	     17.33900700	     -3.12547283	    -14.32198186	      6.09219772	     -7.27439015
